name C:\Users\u0101727\Documents\MyRepositories\upper-imu-dc\OpenSim\subject0\MA\MA_Splines\angle_in_n6_dof6_1.mot
datacolumns 7
datarows 33
range 100.01000000 100.33000000
endheader 
time	clav_prot	clav_elev	scapula_abduction	scapula_elevation	scapula_upward_rot	scapula_winging	
        100.01000000	        -23.33033544	         11.96046367	        -27.66618321	          4.10553212	         23.68359952	        -12.12692714	
        100.02000000	        -16.90593547	         11.96046367	        -27.66618321	          4.10553212	         23.68359952	        -12.12692714	
        100.03000000	        -49.02793530	         16.86370047	        -27.66618321	          4.10553212	         23.68359952	        -12.12692714	
        100.04000000	        -42.60353533	         16.86370047	        -27.66618321	          4.10553212	         23.68359952	        -12.12692714	
        100.05000000	        -36.17913537	         16.86370047	        -27.66618321	          4.10553212	         23.68359952	        -12.12692714	
        100.06000000	        -29.75473540	         16.86370047	        -27.66618321	          4.10553212	         23.68359952	        -12.12692714	
        100.07000000	        -23.33033544	         16.86370047	        -27.66618321	          4.10553212	         23.68359952	        -12.12692714	
        100.08000000	        -16.90593547	         16.86370047	        -27.66618321	          4.10553212	         23.68359952	        -12.12692714	
        100.09000000	        -49.02793530	         -7.65248351	        -17.92766020	          4.10553212	         23.68359952	        -12.12692714	
        100.10000000	        -42.60353533	         -7.65248351	        -17.92766020	          4.10553212	         23.68359952	        -12.12692714	
        100.11000000	        -36.17913537	         -7.65248351	        -17.92766020	          4.10553212	         23.68359952	        -12.12692714	
        100.12000000	        -29.75473540	         -7.65248351	        -17.92766020	          4.10553212	         23.68359952	        -12.12692714	
        100.13000000	        -23.33033544	         -7.65248351	        -17.92766020	          4.10553212	         23.68359952	        -12.12692714	
        100.14000000	        -16.90593547	         -7.65248351	        -17.92766020	          4.10553212	         23.68359952	        -12.12692714	
        100.15000000	        -49.02793530	         -2.74924671	        -17.92766020	          4.10553212	         23.68359952	        -12.12692714	
        100.16000000	        -42.60353533	         -2.74924671	        -17.92766020	          4.10553212	         23.68359952	        -12.12692714	
        100.17000000	        -36.17913537	         -2.74924671	        -17.92766020	          4.10553212	         23.68359952	        -12.12692714	
        100.18000000	        -29.75473540	         -2.74924671	        -17.92766020	          4.10553212	         23.68359952	        -12.12692714	
        100.19000000	        -23.33033544	         -2.74924671	        -17.92766020	          4.10553212	         23.68359952	        -12.12692714	
        100.20000000	        -16.90593547	         -2.74924671	        -17.92766020	          4.10553212	         23.68359952	        -12.12692714	
        100.21000000	        -49.02793530	          2.15399008	        -17.92766020	          4.10553212	         23.68359952	        -12.12692714	
        100.22000000	        -42.60353533	          2.15399008	        -17.92766020	          4.10553212	         23.68359952	        -12.12692714	
        100.23000000	        -36.17913537	          2.15399008	        -17.92766020	          4.10553212	         23.68359952	        -12.12692714	
        100.24000000	        -29.75473540	          2.15399008	        -17.92766020	          4.10553212	         23.68359952	        -12.12692714	
        100.25000000	        -23.33033544	          2.15399008	        -17.92766020	          4.10553212	         23.68359952	        -12.12692714	
        100.26000000	        -16.90593547	          2.15399008	        -17.92766020	          4.10553212	         23.68359952	        -12.12692714	
        100.27000000	        -49.02793530	          7.05722688	        -17.92766020	          4.10553212	         23.68359952	        -12.12692714	
        100.28000000	        -42.60353533	          7.05722688	        -17.92766020	          4.10553212	         23.68359952	        -12.12692714	
        100.29000000	        -36.17913537	          7.05722688	        -17.92766020	          4.10553212	         23.68359952	        -12.12692714	
        100.30000000	        -29.75473540	          7.05722688	        -17.92766020	          4.10553212	         23.68359952	        -12.12692714	
        100.31000000	        -23.33033544	          7.05722688	        -17.92766020	          4.10553212	         23.68359952	        -12.12692714	
        100.32000000	        -16.90593547	          7.05722688	        -17.92766020	          4.10553212	         23.68359952	        -12.12692714	
        100.33000000	        -49.02793530	         11.96046367	        -17.92766020	          4.10553212	         23.68359952	        -12.12692714	
